<?xml version="1.0" encoding="UTF-8"?>
<svg version="1.1" xmlns="http://www.w3.org/2000/svg" width="592" height="266">
<path d="M0 0 C0.33 2.31 0.66 4.62 1 7 C4.63 6.67 8.26 6.34 12 6 C11.67 7.32 11.34 8.64 11 10 C8.03 10.66 5.06 11.32 2 12 C2 13.65 2 15.3 2 17 C6.95 16.01 6.95 16.01 12 15 C14.66467584 19.55215455 15.56458217 22.7305664 15 28 C13.79184939 30.80071278 12.59104471 33.24188187 10.71484375 35.6484375 C9.36531535 40.08786971 12.14342814 44.52397227 13.85742188 48.65429688 C15.64343363 53.40207756 16.06590068 56.9016115 15.41918945 61.95263672 C14.76723384 69.30302559 15.91807712 75.67717948 17.578125 82.82421875 C17.86419617 84.09167435 18.15026733 85.35912994 18.44500732 86.66499329 C19.05023748 89.32634498 19.6710968 91.98348273 20.30175781 94.63891602 C21.09927879 98.00894084 21.84058293 101.38869641 22.56862259 104.77431011 C23.28471229 108.04976696 24.0601928 111.31053289 24.828125 114.57421875 C25.08072083 115.77237717 25.33331665 116.97053558 25.59356689 118.20500183 C27.96826757 127.76898826 32.3328175 132.1789908 40 138 C41.17708543 134.49753356 42.33190389 131.03357688 43.1875 127.4375 C43.36667969 126.71433594 43.54585937 125.99117188 43.73046875 125.24609375 C44.06149472 122.48754399 43.92282946 120.63049518 43 118 C40.92472716 116.54292937 40.92472716 116.54292937 38.4375 115.4375 C35.96875 113.95703125 35.96875 113.95703125 34 112 C33.20232837 107.90143722 33.45961758 104.12291769 34 100 C36.19177933 98.90411034 37.74687431 98.71799012 40.17578125 98.46484375 C41.00400391 98.37783203 41.83222656 98.29082031 42.68554688 98.20117188 C43.55244141 98.11416016 44.41933594 98.02714844 45.3125 97.9375 C46.59543945 97.80118164 46.59543945 97.80118164 47.90429688 97.66210938 C51.95104538 97.24520964 55.92548176 96.87398397 60 97 C60.103125 95.94554688 60.20625 94.89109375 60.3125 93.8046875 C61.06308797 87.80791246 62.56475484 81.98784108 64 76.125 C64.27328125 74.98546875 64.5465625 73.8459375 64.828125 72.671875 C66.8625432 64.27491359 66.8625432 64.27491359 68 62 C76.25 62 84.5 62 93 62 C95.03495383 68.10486148 96.96314582 74.12878879 98.6875 80.3125 C99.02491211 81.4890918 99.02491211 81.4890918 99.36914062 82.68945312 C99.58119141 83.44806641 99.79324219 84.20667969 100.01171875 84.98828125 C100.20209717 85.66415283 100.39247559 86.34002441 100.58862305 87.03637695 C101 89 101 89 101 93 C101.66 92.67 102.32 92.34 103 92 C105.35508171 91.67425518 107.69697971 91.39629242 110.06079102 91.15209961 C110.7878978 91.07392502 111.51500458 90.99575043 112.2641449 90.91520691 C114.67699293 90.65693129 117.09040491 90.40443611 119.50390625 90.15234375 C121.18344772 89.97461705 122.86296709 89.79668137 124.54246521 89.61854553 C128.07044164 89.24530008 131.59870956 88.87497141 135.12719727 88.5065918 C139.63108084 88.0360942 144.13410765 87.55790282 148.63693333 87.07739925 C152.11031906 86.70772236 155.58416125 86.34248631 159.05814934 85.97851753 C160.71714167 85.80412041 162.37598557 85.62830489 164.03466988 85.45100212 C166.36714562 85.20229577 168.70018163 84.95967433 171.03344727 84.71850586 C171.70860382 84.645271 172.38376038 84.57203613 173.07937622 84.49658203 C178.13003145 83.98394909 182.85238335 84 188 84 C188 99.18 188 114.36 188 130 C183.38 129.67 178.76 129.34 174 129 C177.3 136.59 180.6 144.18 184 152 C186.99964844 151.94457031 189.99929688 151.88914063 193.08984375 151.83203125 C196.01914356 151.81581634 198.94786448 151.8185157 201.87719727 151.82299805 C203.90144989 151.81605406 205.92573828 151.78967047 207.94946289 151.74291992 C224.72611047 151.37524653 224.72611047 151.37524653 230.19165039 155.28051758 C232.48344123 158.074527 234.25177468 160.84357959 236 164 C236.99468668 165.30395516 238.01337889 166.59034402 239.06640625 167.84765625 C239.90004395 168.91802161 240.73215306 169.98957979 241.5625 171.0625 C241.99884766 171.61615234 242.43519531 172.16980469 242.88476562 172.74023438 C246 176.76509763 246 176.76509763 246 179 C247.65 178.67 249.3 178.34 251 178 C251.00410889 177.3294458 251.00821777 176.6588916 251.01245117 175.96801758 C251.04544643 172.91529609 251.1160962 169.8645547 251.1875 166.8125 C251.19620117 165.22985352 251.19620117 165.22985352 251.20507812 163.61523438 C251.4278458 155.76886176 251.4278458 155.76886176 254.36328125 151.82421875 C259.27932584 148.42304419 264.20016566 148.35157132 270 149 C273.5625 150.6875 273.5625 150.6875 276 153 C276.65234375 155.64453125 276.65234375 155.64453125 277 158 C277.95261719 157.55527344 278.90523438 157.11054688 279.88671875 156.65234375 C281.15332754 156.08002422 282.42027264 155.50844859 283.6875 154.9375 C284.31333984 154.64294922 284.93917969 154.34839844 285.58398438 154.04492188 C289.46021568 152.31989747 291.92642725 151.63694984 296 153 C296.33 154.98 296.66 156.96 297 159 C291.10258813 162.05746968 285.26873698 164.79433329 279 167 C278.67 170.3 278.34 173.6 278 177 C278.98484375 176.84660156 279.9696875 176.69320312 280.984375 176.53515625 C285.06484925 175.95384246 289.13646675 175.66537973 293.25 175.4375 C293.98855225 175.3950415 294.72710449 175.35258301 295.48803711 175.30883789 C301.32990262 174.99273477 307.15012817 174.90996951 313 175 C312.98428955 174.42032471 312.9685791 173.84064941 312.95239258 173.2434082 C312.88977209 170.59987261 312.85092482 167.95649345 312.8125 165.3125 C312.77479492 163.94448242 312.77479492 163.94448242 312.73632812 162.54882812 C312.68191651 157.56109716 312.6438105 153.99734835 316 150 C320.12007797 147.125527 323.27846617 146.53864582 328.11328125 147.33984375 C331.13684291 148.39777733 332.86724576 150.68951624 335 153 C339.02241433 153.27586863 339.02241433 153.27586863 342.4375 151.4375 C346.06466258 149.97390808 347.38198701 149.79399567 351 151 C351 152.98 351 154.96 351 157 C346.05 158.98 341.1 160.96 336 163 C336 166.3 336 169.6 336 173 C336.95390625 172.3503125 337.9078125 171.700625 338.890625 171.03125 C353.71555565 162.02211645 368.98351066 163.16022055 385.64160156 163.80761719 C391.53841468 164.03213962 397.43603344 164.14786013 403.3359375 164.2578125 C414.22510419 164.465206 425.11249591 164.71922486 436 165 C434.41434508 173.48902228 430.98129896 177.31809992 424.1875 182.25 C423.4248584 182.8179126 422.6622168 183.3858252 421.87646484 183.97094727 C416.20778105 188.17428516 410.46811259 192.28004314 404.70703125 196.35546875 C397.88424609 201.19858568 391.18333082 206.2118685 384.45556641 211.18554688 C380.47350802 214.12794675 376.48661232 217.0637748 372.5 220 C367.73617273 223.50887215 362.97328199 227.01897805 358.21484375 230.53515625 C349.76105011 236.77884725 341.28666583 242.99084371 332.75170898 249.12329102 C332.08598877 249.60209717 331.42026855 250.08090332 330.734375 250.57421875 C330.04931426 251.05332773 329.36425353 251.53243672 328.65843338 252.02606416 C326.63913415 253.5254311 324.77620237 255.04473673 322.8856383 256.69216514 C313.08387424 264.94952006 305.6880503 266.59394524 293.10191345 266.38336182 C291.34016783 266.39462859 289.57844758 266.41069243 287.81678396 266.43108535 C283.01574116 266.47283347 278.2171826 266.4467336 273.41619933 266.40865326 C268.2239398 266.37950569 263.03203444 266.41405834 257.83981323 266.4402771 C247.68675938 266.48137424 237.5346366 266.4635625 227.38160657 266.42468801 C219.13204328 266.3943311 210.88273281 266.38629636 202.63311958 266.39409637 C201.45735574 266.39520449 200.2815919 266.39631261 199.07019885 266.39745431 C196.68149119 266.39982675 194.29278358 266.40226168 191.90407605 266.40475842 C169.53495222 266.42575352 147.16633783 266.38099308 124.79733277 266.31252262 C105.6007987 266.25514113 86.4048359 266.24972072 67.20825195 266.28320312 C44.90322674 266.32205888 22.59851953 266.3322793 0.29348189 266.29417014 C-2.08349919 266.29016285 -4.46048031 266.28617902 -6.83746147 266.28221893 C-8.00693925 266.28024048 -9.17641702 266.27826202 -10.38133352 266.27622361 C-18.62622296 266.26414321 -26.87095255 266.27222654 -35.11583138 266.28778839 C-45.15543512 266.30603693 -55.19437504 266.29187261 -65.23385096 266.23615757 C-70.35693352 266.20849573 -75.47897366 266.1952692 -80.60209084 266.22089005 C-85.28970079 266.24390237 -89.97523699 266.22551842 -94.66260081 266.17375013 C-96.36006108 266.16228604 -98.05770508 266.16605995 -99.75508202 266.18641523 C-112.45269465 266.32616751 -112.45269465 266.32616751 -116.28612316 263.04060507 C-117.8502498 260.73984165 -118.94728013 258.56780228 -120 256 C-120.68041227 254.83991477 -121.37865564 253.68999844 -122.09887695 252.55419922 C-122.72238037 251.48186035 -123.34588379 250.40952148 -123.98828125 249.3046875 C-124.33287888 248.7141156 -124.6774765 248.1235437 -125.03251648 247.51507568 C-125.75748461 246.27207467 -126.48125528 245.02837452 -127.20385742 243.78399658 C-129.08466116 240.54539833 -130.97465983 237.31216825 -132.86328125 234.078125 C-133.41183273 233.13793015 -133.41183273 233.13793015 -133.97146606 232.17874146 C-136.61899493 227.64336737 -139.29053716 223.12361231 -142 218.625 C-142.65871094 217.52929688 -143.31742188 216.43359375 -143.99609375 215.3046875 C-145.49993234 212.82467298 -147.01376034 210.35201007 -148.53515625 207.8828125 C-148.95732422 207.1923584 -149.37949219 206.5019043 -149.81445312 205.79052734 C-150.6239165 204.46707373 -151.43871338 203.14686183 -152.25976562 201.83056641 C-155 197.33771355 -155 197.33771355 -155 194 C-138.358041 193.49640254 -122.88086077 194.45473622 -106.53613281 197.56005859 C-101.37807523 198.45482369 -96.22763732 198.73861813 -91 199 C-91 194.38 -91 189.76 -91 185 C-92.65 184.67 -94.3 184.34 -96 184 C-98.12093023 183.18835167 -100.22518699 182.33206272 -102.3125 181.4375 C-103.38113281 180.98246094 -104.44976562 180.52742187 -105.55078125 180.05859375 C-106.76314453 179.53458984 -106.76314453 179.53458984 -108 179 C-108 177.02 -108 175.04 -108 173 C-103.87447197 171.8223358 -101.69819037 172.19158466 -97.8125 173.9375 C-94.52075914 175.50421714 -94.52075914 175.50421714 -91 176 C-90.195625 175.030625 -89.39125 174.06125 -88.5625 173.0625 C-86 170 -86 170 -83 169 C-77.64765358 168.65468733 -74.34468232 168.52425415 -70 172 C-67.26452219 175.03877789 -66.63262962 176.91708582 -66.70703125 180.984375 C-66.71827026 182.24846191 -66.71827026 182.24846191 -66.72973633 183.53808594 C-66.75704834 184.59801758 -66.78436035 185.65794922 -66.8125 186.75 C-66.874375 190.1325 -66.93625 193.515 -67 197 C-60.07 196.67 -53.14 196.34 -46 196 C-45.7525 193.6075 -45.505 191.215 -45.25 188.75 C-44.85311923 185.16426854 -44.42884403 181.58204202 -44 178 C-43.86045898 176.83307617 -43.72091797 175.66615234 -43.57714844 174.46386719 C-43.11355921 170.68133345 -42.62246671 166.90321588 -42.125 163.125 C-41.97579102 161.89491211 -41.82658203 160.66482422 -41.67285156 159.39746094 C-41.51526367 158.23762695 -41.35767578 157.07779297 -41.1953125 155.8828125 C-41.06141113 154.84527832 -40.92750977 153.80774414 -40.78955078 152.73876953 C-39.49830808 148.25974646 -36.87814905 146.50179946 -32.9375 144.25 C-30 143 -30 143 -27 143 C-26.9582666 142.02184326 -26.9165332 141.04368652 -26.87353516 140.03588867 C-26.42733283 130.55533855 -25.68673443 121.12269119 -24.7734375 111.67578125 C-24.6610675 110.50989471 -24.54869751 109.34400818 -24.43292236 108.14279175 C-23.96314453 103.29813033 -23.48882244 98.45396139 -23.00585938 93.6105957 C-22.65027317 90.02882525 -22.3049219 86.44618187 -21.9609375 82.86328125 C-21.84954437 81.77469315 -21.73815125 80.68610504 -21.62338257 79.56452942 C-20.87065233 71.62591119 -21.04919729 65.48244247 -24.4765625 58.1875 C-25.80876559 52.62008408 -23.43887823 46.46852268 -21.9375 41.0625 C-21.75123047 40.37865234 -21.56496094 39.69480469 -21.37304688 38.99023438 C-20.91910943 37.32579707 -20.46009084 35.66274688 -20 34 C-20.928125 33.731875 -21.85625 33.46375 -22.8125 33.1875 C-25.76240366 32.08851629 -27.05615186 31.37581439 -29 29 C-25.28804324 22.53401081 -25.28804324 22.53401081 -21.8046875 21.08984375 C-18.10298912 20.26520797 -14.80849956 20 -11 20 C-11.33 18.35 -11.66 16.7 -12 15 C-16.95 15.495 -16.95 15.495 -22 16 C-22 15.01 -22 14.02 -22 13 C-18.7 12.01 -15.4 11.02 -12 10 C-12 7.36 -12 4.72 -12 2 C-10.7625 1.67 -9.525 1.34 -8.25 1 C-7.55390625 0.814375 -6.8578125 0.62875 -6.140625 0.4375 C-4 0 -4 0 0 0 Z M-19 44 C-20.43305609 48.47830028 -21.44286767 52.23917255 -21 57 C-20.34 57.66 -19.68 58.32 -19 59 C-18.67 54.05 -18.34 49.1 -18 44 C-18.33 44 -18.66 44 -19 44 Z " fill="#000000" transform="translate(156,1)"/>
<path d="M0 0 C0.33 2.31 0.66 4.62 1 7 C4.63 6.67 8.26 6.34 12 6 C11.67 7.32 11.34 8.64 11 10 C8.03 10.66 5.06 11.32 2 12 C2 13.65 2 15.3 2 17 C6.95 16.01 6.95 16.01 12 15 C14.66467584 19.55215455 15.56458217 22.7305664 15 28 C13.79184939 30.80071278 12.59104471 33.24188187 10.71484375 35.6484375 C9.36531535 40.08786971 12.14342814 44.52397227 13.85742188 48.65429688 C15.64343363 53.40207756 16.06590068 56.9016115 15.41918945 61.95263672 C14.76723384 69.30302559 15.91807712 75.67717948 17.578125 82.82421875 C17.86419617 84.09167435 18.15026733 85.35912994 18.44500732 86.66499329 C19.05023748 89.32634498 19.6710968 91.98348273 20.30175781 94.63891602 C21.09927879 98.00894084 21.84058293 101.38869641 22.56862259 104.77431011 C23.28471229 108.04976696 24.0601928 111.31053289 24.828125 114.57421875 C25.08072083 115.77237717 25.33331665 116.97053558 25.59356689 118.20500183 C27.96826757 127.76898826 32.3328175 132.1789908 40 138 C41.17708543 134.49753356 42.33190389 131.03357688 43.1875 127.4375 C43.36667969 126.71433594 43.54585937 125.99117188 43.73046875 125.24609375 C44.06149472 122.48754399 43.92282946 120.63049518 43 118 C40.92472716 116.54292937 40.92472716 116.54292937 38.4375 115.4375 C35.96875 113.95703125 35.96875 113.95703125 34 112 C33.20232837 107.90143722 33.45961758 104.12291769 34 100 C36.19177933 98.90411034 37.74687431 98.71799012 40.17578125 98.46484375 C41.00400391 98.37783203 41.83222656 98.29082031 42.68554688 98.20117188 C43.55244141 98.11416016 44.41933594 98.02714844 45.3125 97.9375 C46.59543945 97.80118164 46.59543945 97.80118164 47.90429688 97.66210938 C51.95104538 97.24520964 55.92548176 96.87398397 60 97 C60.103125 95.94554688 60.20625 94.89109375 60.3125 93.8046875 C61.06308797 87.80791246 62.56475484 81.98784108 64 76.125 C64.27328125 74.98546875 64.5465625 73.8459375 64.828125 72.671875 C66.8625432 64.27491359 66.8625432 64.27491359 68 62 C76.25 62 84.5 62 93 62 C95.03495383 68.10486148 96.96314582 74.12878879 98.6875 80.3125 C99.02491211 81.4890918 99.02491211 81.4890918 99.36914062 82.68945312 C99.58119141 83.44806641 99.79324219 84.20667969 100.01171875 84.98828125 C100.20209717 85.66415283 100.39247559 86.34002441 100.58862305 87.03637695 C101 89 101 89 101 93 C101.66 92.67 102.32 92.34 103 92 C105.35508171 91.67425518 107.69697971 91.39629242 110.06079102 91.15209961 C110.7878978 91.07392502 111.51500458 90.99575043 112.2641449 90.91520691 C114.67699293 90.65693129 117.09040491 90.40443611 119.50390625 90.15234375 C121.18344772 89.97461705 122.86296709 89.79668137 124.54246521 89.61854553 C128.07044164 89.24530008 131.59870956 88.87497141 135.12719727 88.5065918 C139.63108084 88.0360942 144.13410765 87.55790282 148.63693333 87.07739925 C152.11031906 86.70772236 155.58416125 86.34248631 159.05814934 85.97851753 C160.71714167 85.80412041 162.37598557 85.62830489 164.03466988 85.45100212 C166.36714562 85.20229577 168.70018163 84.95967433 171.03344727 84.71850586 C171.70860382 84.645271 172.38376038 84.57203613 173.07937622 84.49658203 C178.13003145 83.98394909 182.85238335 84 188 84 C188 99.18 188 114.36 188 130 C183.38 129.67 178.76 129.34 174 129 C177.3 136.59 180.6 144.18 184 152 C186.99964844 151.94457031 189.99929688 151.88914063 193.08984375 151.83203125 C196.01914356 151.81581634 198.94786448 151.8185157 201.87719727 151.82299805 C203.90144989 151.81605406 205.92573828 151.78967047 207.94946289 151.74291992 C224.72611047 151.37524653 224.72611047 151.37524653 230.19165039 155.28051758 C232.48344123 158.074527 234.25177468 160.84357959 236 164 C236.99468668 165.30395516 238.01337889 166.59034402 239.06640625 167.84765625 C239.90004395 168.91802161 240.73215306 169.98957979 241.5625 171.0625 C241.99884766 171.61615234 242.43519531 172.16980469 242.88476562 172.74023438 C246 176.76509763 246 176.76509763 246 179 C247.65 178.67 249.3 178.34 251 178 C251.00410889 177.3294458 251.00821777 176.6588916 251.01245117 175.96801758 C251.04544643 172.91529609 251.1160962 169.8645547 251.1875 166.8125 C251.19620117 165.22985352 251.19620117 165.22985352 251.20507812 163.61523438 C251.4278458 155.76886176 251.4278458 155.76886176 254.36328125 151.82421875 C259.27932584 148.42304419 264.20016566 148.35157132 270 149 C273.5625 150.6875 273.5625 150.6875 276 153 C276.65234375 155.64453125 276.65234375 155.64453125 277 158 C277.95261719 157.55527344 278.90523438 157.11054688 279.88671875 156.65234375 C281.15332754 156.08002422 282.42027264 155.50844859 283.6875 154.9375 C284.31333984 154.64294922 284.93917969 154.34839844 285.58398438 154.04492188 C289.46021568 152.31989747 291.92642725 151.63694984 296 153 C296.33 154.98 296.66 156.96 297 159 C291.10258813 162.05746968 285.26873698 164.79433329 279 167 C278.67 170.3 278.34 173.6 278 177 C278.98484375 176.84660156 279.9696875 176.69320312 280.984375 176.53515625 C285.06484925 175.95384246 289.13646675 175.66537973 293.25 175.4375 C293.98855225 175.3950415 294.72710449 175.35258301 295.48803711 175.30883789 C301.32990262 174.99273477 307.15012817 174.90996951 313 175 C312.98428955 174.42032471 312.9685791 173.84064941 312.95239258 173.2434082 C312.88977209 170.59987261 312.85092482 167.95649345 312.8125 165.3125 C312.77479492 163.94448242 312.77479492 163.94448242 312.73632812 162.54882812 C312.68191651 157.56109716 312.6438105 153.99734835 316 150 C320.12007797 147.125527 323.27846617 146.53864582 328.11328125 147.33984375 C331.13684291 148.39777733 332.86724576 150.68951624 335 153 C339.02241433 153.27586863 339.02241433 153.27586863 342.4375 151.4375 C346.06466258 149.97390808 347.38198701 149.79399567 351 151 C351 152.98 351 154.96 351 157 C346.05 158.98 341.1 160.96 336 163 C336 166.3 336 169.6 336 173 C336.95390625 172.3503125 337.9078125 171.700625 338.890625 171.03125 C353.71555565 162.02211645 368.98351066 163.16022055 385.64160156 163.80761719 C391.53841468 164.03213962 397.43603344 164.14786013 403.3359375 164.2578125 C414.22510419 164.465206 425.11249591 164.71922486 436 165 C434.41434508 173.48902228 430.98129896 177.31809992 424.1875 182.25 C423.4248584 182.8179126 422.6622168 183.3858252 421.87646484 183.97094727 C416.20778105 188.17428516 410.46811259 192.28004314 404.70703125 196.35546875 C397.88424609 201.19858568 391.18333082 206.2118685 384.45556641 211.18554688 C380.47350802 214.12794675 376.48661232 217.0637748 372.5 220 C367.73617273 223.50887215 362.97328199 227.01897805 358.21484375 230.53515625 C349.76105011 236.77884725 341.28666583 242.99084371 332.75170898 249.12329102 C332.08598877 249.60209717 331.42026855 250.08090332 330.734375 250.57421875 C330.04931426 251.05332773 329.36425353 251.53243672 328.65843338 252.02606416 C326.63913415 253.5254311 324.77620237 255.04473673 322.8856383 256.69216514 C313.08387424 264.94952006 305.6880503 266.59394524 293.10191345 266.38336182 C291.34016783 266.39462859 289.57844758 266.41069243 287.81678396 266.43108535 C283.01574116 266.47283347 278.2171826 266.4467336 273.41619933 266.40865326 C268.2239398 266.37950569 263.03203444 266.41405834 257.83981323 266.4402771 C247.68675938 266.48137424 237.5346366 266.4635625 227.38160657 266.42468801 C219.13204328 266.3943311 210.88273281 266.38629636 202.63311958 266.39409637 C201.45735574 266.39520449 200.2815919 266.39631261 199.07019885 266.39745431 C196.68149119 266.39982675 194.29278358 266.40226168 191.90407605 266.40475842 C169.53495222 266.42575352 147.16633783 266.38099308 124.79733277 266.31252262 C105.6007987 266.25514113 86.4048359 266.24972072 67.20825195 266.28320312 C44.90322674 266.32205888 22.59851953 266.3322793 0.29348189 266.29417014 C-2.08349919 266.29016285 -4.46048031 266.28617902 -6.83746147 266.28221893 C-8.00693925 266.28024048 -9.17641702 266.27826202 -10.38133352 266.27622361 C-18.62622296 266.26414321 -26.87095255 266.27222654 -35.11583138 266.28778839 C-45.15543512 266.30603693 -55.19437504 266.29187261 -65.23385096 266.23615757 C-70.35693352 266.20849573 -75.47897366 266.1952692 -80.60209084 266.22089005 C-85.28970079 266.24390237 -89.97523699 266.22551842 -94.66260081 266.17375013 C-96.36006108 266.16228604 -98.05770508 266.16605995 -99.75508202 266.18641523 C-112.45269465 266.32616751 -112.45269465 266.32616751 -116.28612316 263.04060507 C-117.8502498 260.73984165 -118.94728013 258.56780228 -120 256 C-120.68041227 254.83991477 -121.37865564 253.68999844 -122.09887695 252.55419922 C-122.72238037 251.48186035 -123.34588379 250.40952148 -123.98828125 249.3046875 C-124.33287888 248.7141156 -124.6774765 248.1235437 -125.03251648 247.51507568 C-125.75748461 246.27207467 -126.48125528 245.02837452 -127.20385742 243.78399658 C-129.08466116 240.54539833 -130.97465983 237.31216825 -132.86328125 234.078125 C-133.41183273 233.13793015 -133.41183273 233.13793015 -133.97146606 232.17874146 C-136.61899493 227.64336737 -139.29053716 223.12361231 -142 218.625 C-142.65871094 217.52929688 -143.31742188 216.43359375 -143.99609375 215.3046875 C-145.49993234 212.82467298 -147.01376034 210.35201007 -148.53515625 207.8828125 C-148.95732422 207.1923584 -149.37949219 206.5019043 -149.81445312 205.79052734 C-150.6239165 204.46707373 -151.43871338 203.14686183 -152.25976562 201.83056641 C-155 197.33771355 -155 197.33771355 -155 194 C-138.358041 193.49640254 -122.88086077 194.45473622 -106.53613281 197.56005859 C-101.37807523 198.45482369 -96.22763732 198.73861813 -91 199 C-91 194.38 -91 189.76 -91 185 C-92.65 184.67 -94.3 184.34 -96 184 C-98.12093023 183.18835167 -100.22518699 182.33206272 -102.3125 181.4375 C-103.38113281 180.98246094 -104.44976562 180.52742187 -105.55078125 180.05859375 C-106.76314453 179.53458984 -106.76314453 179.53458984 -108 179 C-108 177.02 -108 175.04 -108 173 C-103.87447197 171.8223358 -101.69819037 172.19158466 -97.8125 173.9375 C-94.52075914 175.50421714 -94.52075914 175.50421714 -91 176 C-90.195625 175.030625 -89.39125 174.06125 -88.5625 173.0625 C-86 170 -86 170 -83 169 C-77.64765358 168.65468733 -74.34468232 168.52425415 -70 172 C-67.26452219 175.03877789 -66.63262962 176.91708582 -66.70703125 180.984375 C-66.71827026 182.24846191 -66.71827026 182.24846191 -66.72973633 183.53808594 C-66.75704834 184.59801758 -66.78436035 185.65794922 -66.8125 186.75 C-66.874375 190.1325 -66.93625 193.515 -67 197 C-60.07 196.67 -53.14 196.34 -46 196 C-45.7525 193.6075 -45.505 191.215 -45.25 188.75 C-44.85311923 185.16426854 -44.42884403 181.58204202 -44 178 C-43.86045898 176.83307617 -43.72091797 175.66615234 -43.57714844 174.46386719 C-43.11355921 170.68133345 -42.62246671 166.90321588 -42.125 163.125 C-41.97579102 161.89491211 -41.82658203 160.66482422 -41.67285156 159.39746094 C-41.51526367 158.23762695 -41.35767578 157.07779297 -41.1953125 155.8828125 C-41.06141113 154.84527832 -40.92750977 153.80774414 -40.78955078 152.73876953 C-39.49830808 148.25974646 -36.87814905 146.50179946 -32.9375 144.25 C-30 143 -30 143 -27 143 C-26.9582666 142.02184326 -26.9165332 141.04368652 -26.87353516 140.03588867 C-26.42733283 130.55533855 -25.68673443 121.12269119 -24.7734375 111.67578125 C-24.6610675 110.50989471 -24.54869751 109.34400818 -24.43292236 108.14279175 C-23.96314453 103.29813033 -23.48882244 98.45396139 -23.00585938 93.6105957 C-22.65027317 90.02882525 -22.3049219 86.44618187 -21.9609375 82.86328125 C-21.84954437 81.77469315 -21.73815125 80.68610504 -21.62338257 79.56452942 C-20.87065233 71.62591119 -21.04919729 65.48244247 -24.4765625 58.1875 C-25.80876559 52.62008408 -23.43887823 46.46852268 -21.9375 41.0625 C-21.75123047 40.37865234 -21.56496094 39.69480469 -21.37304688 38.99023438 C-20.91910943 37.32579707 -20.46009084 35.66274688 -20 34 C-20.928125 33.731875 -21.85625 33.46375 -22.8125 33.1875 C-25.76240366 32.08851629 -27.05615186 31.37581439 -29 29 C-25.28804324 22.53401081 -25.28804324 22.53401081 -21.8046875 21.08984375 C-18.10298912 20.26520797 -14.80849956 20 -11 20 C-11.33 18.35 -11.66 16.7 -12 15 C-16.95 15.495 -16.95 15.495 -22 16 C-22 15.01 -22 14.02 -22 13 C-18.7 12.01 -15.4 11.02 -12 10 C-12 7.36 -12 4.72 -12 2 C-10.7625 1.67 -9.525 1.34 -8.25 1 C-7.55390625 0.814375 -6.8578125 0.62875 -6.140625 0.4375 C-4 0 -4 0 0 0 Z M-19 44 C-20.43305609 48.47830028 -21.44286767 52.23917255 -21 57 C-20.34 57.66 -19.68 58.32 -19 59 C-18.67 54.05 -18.34 49.1 -18 44 C-18.33 44 -18.66 44 -19 44 Z M350.36673641 170.13797188 C336.08798927 178.48258605 319.73585413 178.00150698 303.68100762 178.70199776 C299.25485336 178.90409972 294.83130528 179.15306894 290.40727234 179.39660645 C282.84866816 179.80673723 275.28910686 180.1892679 267.72808838 180.55206299 C255.82416489 181.12367522 243.92356193 181.75181835 232.02294922 182.38818359 C228.03023392 182.60102204 224.03749362 182.81338702 220.04473877 183.02548218 C219.05927409 183.07784723 218.07380941 183.13021229 217.05848217 183.18416417 C210.10497772 183.55280693 203.15109105 183.91354977 196.19696045 184.27017212 C167.52442861 185.74141357 138.86906197 187.38809616 110.21627808 189.20742798 C100.33191164 189.83489285 90.44649142 190.44535808 80.56108284 191.05614662 C78.34845238 191.19287494 76.13583001 191.32973421 73.92321587 191.4667263 C45.55366223 193.22301953 17.18099115 194.92748485 -11.19301033 196.61025238 C-12.75198503 196.70271111 -14.31095961 196.79517174 -15.86993408 196.88763428 C-16.63785636 196.93317759 -17.40577864 196.97872089 -18.1969713 197.0256443 C-23.53498614 197.34247432 -28.87284382 197.66186406 -34.21063232 197.98248291 C-40.6861463 198.371411 -47.16184999 198.75697238 -53.63781929 199.13824695 C-56.95529634 199.33364211 -60.27262613 199.53097427 -63.5898056 199.73139381 C-100.32542927 201.94763241 -100.32542927 201.94763241 -114.5 199 C-126.70857594 196.6905906 -138.6148833 196.56857846 -151 197 C-145.65662309 206.38503619 -140.27058184 215.74362421 -134.8125 225.0625 C-134.4505957 225.68064575 -134.08869141 226.2987915 -133.71582031 226.93566895 C-124.14824166 245.49719421 -124.14824166 245.49719421 -112 262 C-109.7819405 262.11082181 -107.56028529 262.14956009 -105.33949471 262.1621542 C-104.2775619 262.17017649 -104.2775619 262.17017649 -103.1941759 262.17836085 C-100.7917378 262.19521131 -98.38932406 262.20482247 -95.98684692 262.21446228 C-94.25885686 262.22491143 -92.5308692 262.23576279 -90.80288398 262.24698454 C-86.03037882 262.27654905 -81.25786095 262.29953437 -76.48531461 262.32129228 C-72.39716274 262.34068668 -68.30903447 262.36373604 -64.22090127 262.38668614 C-25.42642274 262.60325619 13.36865205 262.7162088 52.16360283 262.80750179 C57.21893239 262.81960989 62.27426134 262.83194345 67.32958984 262.84448242 C69.21432489 262.84914269 69.21432489 262.84914269 71.1371354 262.8538971 C91.46177236 262.90565705 111.78580716 263.00979328 132.11011456 263.13427465 C152.98041621 263.26103663 173.85040543 263.33444835 194.72108185 263.35790926 C206.43756451 263.37253863 218.15291924 263.41112 229.86901474 263.51078606 C239.85518916 263.59572706 249.840108 263.63286788 259.82663892 263.60853248 C264.91753163 263.59762274 270.00569641 263.60889942 275.09613037 263.6823349 C301.08426183 264.86092222 301.08426183 264.86092222 323.49540222 253.51374906 C324.7197811 252.31157415 325.9260733 251.09065555 327.11207032 249.85059941 C330.56489774 246.46604518 334.56544216 243.79087518 338.5 241 C340.08542872 239.83618244 341.66901915 238.6698526 343.25 237.5 C367 220 367 220 390.75 202.5 C391.53479736 201.92169434 392.31959473 201.34338867 393.12817383 200.74755859 C394.70079666 199.58885203 396.27354915 198.43032142 397.84643555 197.27197266 C401.96975715 194.23499676 406.09032982 191.19438266 410.20703125 188.1484375 C411.06167969 187.51679688 411.91632812 186.88515625 412.796875 186.234375 C414.42662052 185.02978049 416.05557784 183.82411857 417.68359375 182.6171875 C418.42351563 182.070625 419.1634375 181.5240625 419.92578125 180.9609375 C420.97113037 180.18508301 420.97113037 180.18508301 422.03759766 179.39355469 C423.76983317 178.16344766 425.58974307 177.0588721 427.41796875 175.9765625 C430.56626755 173.56651833 430.91329158 171.72739407 432 168 C421.16134706 167.68987645 410.32273989 167.41940044 399.48187256 167.19888306 C394.15598867 167.08587697 388.83551722 166.92706271 383.51295471 166.70831299 C380.43991014 166.58968578 377.36660884 166.50978334 374.29214478 166.43823242 C372.87893368 166.39699809 371.46607333 166.33965163 370.05429077 166.26391602 C362.37218417 165.86117947 356.89910915 166.19079188 350.36673641 170.13797188 Z " fill="#000000" transform="translate(156,1)"/>
<path d="M0 0 C2.75 2.5625 2.75 2.5625 5 5 C9.02241433 5.27586863 9.02241433 5.27586863 12.4375 3.4375 C16.06466258 1.97390808 17.38198701 1.79399567 21 3 C21 4.98 21 6.96 21 9 C16.05 10.98 11.1 12.96 6 15 C6 18.3 6 21.6 6 25 C7.43085937 24.02546875 7.43085937 24.02546875 8.890625 23.03125 C23.71555565 14.02211645 38.98351066 15.16022055 55.64160156 15.80761719 C61.53841468 16.03213962 67.43603344 16.14786013 73.3359375 16.2578125 C84.22510419 16.465206 95.11249591 16.71922486 106 17 C104.41434508 25.48902228 100.98129896 29.31809992 94.1875 34.25 C93.4248584 34.8179126 92.6622168 35.3858252 91.87646484 35.97094727 C86.20778105 40.17428516 80.46811259 44.28004314 74.70703125 48.35546875 C67.88424609 53.19858568 61.18333082 58.2118685 54.45556641 63.18554688 C50.47350802 66.12794675 46.48661232 69.0637748 42.5 72 C37.73617273 75.50887215 32.97328199 79.01897805 28.21484375 82.53515625 C19.76105011 88.77884725 11.28666583 94.99084371 2.75170898 101.12329102 C1.75312866 101.84150024 1.75312866 101.84150024 0.734375 102.57421875 C0.04931426 103.05332773 -0.63574647 103.53243672 -1.34156662 104.02606416 C-3.36086585 105.5254311 -5.22379763 107.04473673 -7.1143617 108.69216514 C-16.91612576 116.94952006 -24.3119497 118.59394524 -36.89808655 118.38336182 C-38.65983217 118.39462859 -40.42155242 118.41069243 -42.18321604 118.43108535 C-46.98425884 118.47283347 -51.7828174 118.4467336 -56.58380067 118.40865326 C-61.7760602 118.37950569 -66.96796556 118.41405834 -72.16018677 118.4402771 C-82.31324062 118.48137424 -92.4653634 118.4635625 -102.61839343 118.42468801 C-110.86795672 118.3943311 -119.11726719 118.38629636 -127.36688042 118.39409637 C-128.54264426 118.39520449 -129.7184081 118.39631261 -130.92980115 118.39745431 C-133.31850881 118.39982675 -135.70721642 118.40226168 -138.09592395 118.40475842 C-160.46504778 118.42575352 -182.83366217 118.38099308 -205.20266723 118.31252262 C-224.3992013 118.25514113 -243.5951641 118.24972072 -262.79174805 118.28320312 C-285.09677326 118.32205888 -307.40148047 118.3322793 -329.70651811 118.29417014 C-332.08349919 118.29016285 -334.46048031 118.28617902 -336.83746147 118.28221893 C-338.00693925 118.28024048 -339.17641702 118.27826202 -340.38133352 118.27622361 C-348.62622296 118.26414321 -356.87095255 118.27222654 -365.11583138 118.28778839 C-375.15543512 118.30603693 -385.19437504 118.29187261 -395.23385096 118.23615757 C-400.35693352 118.20849573 -405.47897366 118.1952692 -410.60209084 118.22089005 C-415.28970079 118.24390237 -419.97523699 118.22551842 -424.66260081 118.17375013 C-426.36006108 118.16228604 -428.05770508 118.16605995 -429.75508202 118.18641523 C-442.45269465 118.32616751 -442.45269465 118.32616751 -446.28612316 115.04060507 C-447.8502498 112.73984165 -448.94728013 110.56780228 -450 108 C-450.68041227 106.83991477 -451.37865564 105.68999844 -452.09887695 104.55419922 C-453.03413208 102.94569092 -453.03413208 102.94569092 -453.98828125 101.3046875 C-454.33287888 100.7141156 -454.6774765 100.1235437 -455.03251648 99.51507568 C-455.75748461 98.27207467 -456.48125528 97.02837452 -457.20385742 95.78399658 C-459.08466116 92.54539833 -460.97465983 89.31216825 -462.86328125 86.078125 C-463.41183273 85.13793015 -463.41183273 85.13793015 -463.97146606 84.17874146 C-466.61899493 79.64336737 -469.29053716 75.12361231 -472 70.625 C-472.65871094 69.52929688 -473.31742187 68.43359375 -473.99609375 67.3046875 C-475.49993234 64.82467298 -477.01376034 62.35201007 -478.53515625 59.8828125 C-479.1684082 58.84713135 -479.1684082 58.84713135 -479.81445312 57.79052734 C-480.6239165 56.46707373 -481.43871338 55.14686183 -482.25976562 53.83056641 C-485 49.33771355 -485 49.33771355 -485 46 C-468.358041 45.49640254 -452.88086077 46.45473622 -436.53613281 49.56005859 C-431.37807523 50.45482369 -426.22763732 50.73861813 -421 51 C-421 46.38 -421 41.76 -421 37 C-422.65 36.67 -424.3 36.34 -426 36 C-428.12093023 35.18835167 -430.22518699 34.33206272 -432.3125 33.4375 C-433.38113281 32.98246094 -434.44976562 32.52742188 -435.55078125 32.05859375 C-436.76314453 31.53458984 -436.76314453 31.53458984 -438 31 C-438 29.02 -438 27.04 -438 25 C-433.87447197 23.8223358 -431.69819037 24.19158466 -427.8125 25.9375 C-424.52075914 27.50421714 -424.52075914 27.50421714 -421 28 C-420.195625 27.030625 -419.39125 26.06125 -418.5625 25.0625 C-416 22 -416 22 -413 21 C-407.64765358 20.65468733 -404.34468232 20.52425415 -400 24 C-397.26452219 27.03877789 -396.63262962 28.91708582 -396.70703125 32.984375 C-396.71669922 33.91894531 -396.72636719 34.85351562 -396.73632812 35.81640625 C-396.76146484 36.78449219 -396.78660156 37.75257813 -396.8125 38.75 C-396.83280273 40.22533203 -396.83280273 40.22533203 -396.85351562 41.73046875 C-396.88881274 44.15420415 -396.93811946 46.57682145 -397 49 C-396.36320312 48.93941406 -395.72640625 48.87882812 -395.0703125 48.81640625 C-388.67302547 48.26491599 -382.29500163 47.92006296 -375.87863636 47.70740891 C-359.56227187 47.16138982 -343.28368357 46.15404291 -326.99310875 45.11688995 C-319.01416889 44.60903096 -311.03453694 44.11220732 -303.05492508 43.61503744 C-301.16855681 43.49750589 -299.28219438 43.37988054 -297.39583766 43.26216364 C-275.56035017 41.90012043 -253.72099497 40.60527729 -231.88084555 39.32047462 C-228.82654129 39.14076166 -225.7722489 38.96084838 -222.71796036 38.78086853 C-206.25380151 37.8107302 -189.78949207 36.84315933 -173.32513428 35.87640381 C-161.8416552 35.20208305 -150.3582166 34.52708761 -138.87489444 33.85009933 C-133.05517628 33.50707704 -127.23538192 33.16538966 -121.41552103 32.82479811 C-117.83235842 32.61480629 -114.24926837 32.40359597 -110.66619682 32.19205666 C-109.02155274 32.09520445 -107.37687947 31.99884634 -105.73217392 31.90304375 C-96.81075176 31.3830993 -87.9015785 30.80143272 -79 30 C-78.99432007 29.2622937 -78.98864014 28.5245874 -78.98278809 27.76452637 C-78.95344386 24.779621 -78.88231687 21.7967238 -78.8125 18.8125 C-78.80379883 17.22985352 -78.80379883 17.22985352 -78.79492188 15.61523438 C-78.5721542 7.76886176 -78.5721542 7.76886176 -75.63671875 3.82421875 C-70.72067416 0.42304419 -65.79983434 0.35157132 -60 1 C-56.4375 2.6875 -56.4375 2.6875 -54 5 C-53.34765625 7.64453125 -53.34765625 7.64453125 -53 10 C-52.04738281 9.55527344 -51.09476562 9.11054688 -50.11328125 8.65234375 C-48.84667246 8.08002422 -47.57972736 7.50844859 -46.3125 6.9375 C-45.68666016 6.64294922 -45.06082031 6.34839844 -44.41601562 6.04492188 C-40.53978432 4.31989747 -38.07357275 3.63694984 -34 5 C-33.67 6.98 -33.34 8.96 -33 11 C-38.89741187 14.05746968 -44.73126302 16.79433329 -51 19 C-51.33 22.3 -51.66 25.6 -52 29 C-51.01515625 28.84660156 -50.0303125 28.69320312 -49.015625 28.53515625 C-44.93515075 27.95384246 -40.86353325 27.66537973 -36.75 27.4375 C-35.64217163 27.37381226 -35.64217163 27.37381226 -34.51196289 27.30883789 C-28.67009738 26.99273477 -22.84987183 26.90996951 -17 27 C-17.01571045 26.42032471 -17.0314209 25.84064941 -17.04760742 25.2434082 C-17.11022791 22.59987261 -17.14907518 19.95649345 -17.1875 17.3125 C-17.22520508 15.94448242 -17.22520508 15.94448242 -17.26367188 14.54882812 C-17.31808349 9.56109716 -17.3561895 5.99734835 -14 2 C-9.3865707 -1.21867161 -5.27188462 -1.84461387 0 0 Z M20.36673641 22.13797188 C6.08798927 30.48258605 -10.26414587 30.00150698 -26.31899238 30.70199776 C-30.74514664 30.90409972 -35.16869472 31.15306894 -39.59272766 31.39660645 C-47.15133184 31.80673723 -54.71089314 32.1892679 -62.27191162 32.55206299 C-74.17583511 33.12367522 -86.07643807 33.75181835 -97.97705078 34.38818359 C-101.96976608 34.60102204 -105.96250638 34.81338702 -109.95526123 35.02548218 C-110.94072591 35.07784723 -111.92619059 35.13021229 -112.94151783 35.18416417 C-119.89502228 35.55280693 -126.84890895 35.91354977 -133.80303955 36.27017212 C-162.47557139 37.74141357 -191.13093803 39.38809616 -219.78372192 41.20742798 C-229.66808836 41.83489285 -239.55350858 42.44535808 -249.43891716 43.05614662 C-251.65154762 43.19287494 -253.86416999 43.32973421 -256.07678413 43.4667263 C-284.44633777 45.22301953 -312.81900885 46.92748485 -341.19301033 48.61025238 C-342.75198503 48.70271111 -344.31095961 48.79517174 -345.86993408 48.88763428 C-346.63785636 48.93317759 -347.40577864 48.97872089 -348.1969713 49.0256443 C-353.53498614 49.34247432 -358.87284382 49.66186406 -364.21063232 49.98248291 C-370.6861463 50.371411 -377.16184999 50.75697238 -383.63781929 51.13824695 C-386.95529634 51.33364211 -390.27262613 51.53097427 -393.5898056 51.73139381 C-430.32542927 53.94763241 -430.32542927 53.94763241 -444.5 51 C-456.70857594 48.6905906 -468.6148833 48.56857846 -481 49 C-475.65662309 58.38503619 -470.27058184 67.74362421 -464.8125 77.0625 C-464.4505957 77.68064575 -464.08869141 78.2987915 -463.71582031 78.93566895 C-454.14824166 97.49719421 -454.14824166 97.49719421 -442 114 C-439.7819405 114.11082181 -437.56028529 114.14956009 -435.33949471 114.1621542 C-434.2775619 114.17017649 -434.2775619 114.17017649 -433.1941759 114.17836085 C-430.7917378 114.19521131 -428.38932406 114.20482247 -425.98684692 114.21446228 C-424.25885686 114.22491143 -422.5308692 114.23576279 -420.80288398 114.24698454 C-416.03037882 114.27654905 -411.25786095 114.29953437 -406.48531461 114.32129228 C-402.39716274 114.34068668 -398.30903447 114.36373604 -394.22090127 114.38668614 C-355.42642274 114.60325619 -316.63134795 114.7162088 -277.83639717 114.80750179 C-272.78106761 114.81960989 -267.72573866 114.83194345 -262.67041016 114.84448242 C-260.78567511 114.84914269 -260.78567511 114.84914269 -258.8628646 114.8538971 C-238.53822764 114.90565705 -218.21419284 115.00979328 -197.88988544 115.13427465 C-177.01958379 115.26103663 -156.14959457 115.33444835 -135.27891815 115.35790926 C-123.56243549 115.37253863 -111.84708076 115.41112 -100.13098526 115.51078606 C-90.14481084 115.59572706 -80.159892 115.63286788 -70.17336108 115.60853248 C-65.08246837 115.59762274 -59.99430359 115.60889942 -54.90386963 115.6823349 C-28.91573817 116.86092222 -28.91573817 116.86092222 -6.50459778 105.51374906 C-5.2802189 104.31157415 -4.0739267 103.09065555 -2.88792968 101.85059941 C0.56489774 98.46604518 4.56544216 95.79087518 8.5 93 C10.08542872 91.83618244 11.66901915 90.6698526 13.25 89.5 C37 72 37 72 60.75 54.5 C61.53479736 53.92169434 62.31959473 53.34338867 63.12817383 52.74755859 C64.70079666 51.58885203 66.27354915 50.43032142 67.84643555 49.27197266 C71.96975715 46.23499676 76.09032982 43.19438266 80.20703125 40.1484375 C81.06167969 39.51679688 81.91632812 38.88515625 82.796875 38.234375 C84.42662052 37.02978049 86.05557784 35.82411857 87.68359375 34.6171875 C88.42351563 34.070625 89.1634375 33.5240625 89.92578125 32.9609375 C90.97113037 32.18508301 90.97113037 32.18508301 92.03759766 31.39355469 C93.76983317 30.16344766 95.58974307 29.0588721 97.41796875 27.9765625 C100.56626755 25.56651833 100.91329158 23.72739407 102 20 C91.16134706 19.68987645 80.32273989 19.41940044 69.48187256 19.19888306 C64.15598867 19.08587697 58.83551722 18.92706271 53.51295471 18.70831299 C50.43991014 18.58968578 47.36660884 18.50978334 44.29214478 18.43823242 C42.87893368 18.39699809 41.46607333 18.33965163 40.05429077 18.26391602 C32.37218417 17.86117947 26.89910915 18.19079188 20.36673641 22.13797188 Z " fill="#E5E5E5" transform="translate(486,149)"/>
<path d="M0 0 C2.73362776 2.59344172 2.90624558 3.71310205 3.4375 7.3125 C4.39011719 6.86777344 5.34273438 6.42304688 6.32421875 5.96484375 C7.59082754 5.39252422 8.85777264 4.82094859 10.125 4.25 C11.06375977 3.80817383 11.06375977 3.80817383 12.02148438 3.35742188 C15.89771568 1.63239747 18.36392725 0.94944984 22.4375 2.3125 C22.9325 5.2825 22.9325 5.2825 23.4375 8.3125 C17.54008813 11.36996968 11.70623698 14.10683329 5.4375 16.3125 C5.1075 19.6125 4.7775 22.9125 4.4375 26.3125 C1.05113691 27.05765899 -2.18193103 27.48020563 -5.64453125 27.62890625 C-6.57587891 27.67080078 -7.50722656 27.71269531 -8.46679688 27.75585938 C-9.90635742 27.81483398 -9.90635742 27.81483398 -11.375 27.875 C-12.35404297 27.91818359 -13.33308594 27.96136719 -14.34179688 28.00585938 C-16.74857027 28.1115226 -19.15543983 28.21362327 -21.5625 28.3125 C-21.70803599 24.41706123 -21.79665059 20.52232349 -21.875 16.625 C-21.91689453 15.52220703 -21.95878906 14.41941406 -22.00195312 13.28320312 C-22.1257613 5.08710222 -22.1257613 5.08710222 -19.23046875 1.10546875 C-13.32829479 -2.86099955 -6.34263176 -3.00440452 0 0 Z " fill="#000000" transform="translate(429.5625,151.6875)"/>
<path d="M0 0 C3.00890635 2.40712508 4.9887717 4.30661995 5.52807617 8.22363281 C5.5045105 9.57473145 5.5045105 9.57473145 5.48046875 10.953125 C5.4659668 12.42265625 5.4659668 12.42265625 5.45117188 13.921875 C5.42603516 14.93765625 5.40089844 15.9534375 5.375 17 C5.35469727 18.546875 5.35469727 18.546875 5.33398438 20.125 C5.29867607 22.66719792 5.24936036 25.20833223 5.1875 27.75 C-2.85037644 28.52281036 -10.73519504 28.84615839 -18.8125 28.75 C-18.8125 24.13 -18.8125 19.51 -18.8125 14.75 C-20.4625 14.42 -22.1125 14.09 -23.8125 13.75 C-25.93343023 12.93835167 -28.03768699 12.08206272 -30.125 11.1875 C-31.19363281 10.73246094 -32.26226562 10.27742187 -33.36328125 9.80859375 C-34.17152344 9.45925781 -34.97976562 9.10992187 -35.8125 8.75 C-35.8125 6.77 -35.8125 4.79 -35.8125 2.75 C-31.68697197 1.5723358 -29.51069037 1.94158466 -25.625 3.6875 C-22.33325914 5.25421714 -22.33325914 5.25421714 -18.8125 5.75 C-18.008125 4.780625 -17.20375 3.81125 -16.375 2.8125 C-12.1016601 -2.29466232 -5.90827067 -2.62589807 0 0 Z " fill="#010101" transform="translate(83.8125,171.25)"/>
<path d="M0 0 C2.75 2.5625 2.75 2.5625 5 5 C9.02241433 5.27586863 9.02241433 5.27586863 12.4375 3.4375 C16.06466258 1.97390808 17.38198701 1.79399567 21 3 C21 4.98 21 6.96 21 9 C16.05 10.98 11.1 12.96 6 15 C5.67 18.63 5.34 22.26 5 26 C-2.37838214 26.76658516 -9.58581549 27.10363212 -17 27 C-17.0875127 23.77100574 -17.14056146 20.54231884 -17.1875 17.3125 C-17.21263672 16.40048828 -17.23777344 15.48847656 -17.26367188 14.54882812 C-17.31808349 9.56109716 -17.3561895 5.99734835 -14 2 C-9.3865707 -1.21867161 -5.27188462 -1.84461387 0 0 Z " fill="#000000" transform="translate(486,149)"/>
<path d="M0 0 C-0.33 0.99 -0.66 1.98 -1 3 C-43.60142579 5.74952768 -86.20999321 8.35435626 -128.82693553 10.85116339 C-134.99174419 11.21249861 -141.15641894 11.57608116 -147.32106841 11.94012094 C-153.38175135 12.29796417 -159.44250034 12.65467173 -165.50330675 13.0104177 C-169.07234562 13.21990678 -172.64136113 13.42977286 -176.2103157 13.64069366 C-180.12269758 13.87183828 -184.0352169 14.10059706 -187.94775391 14.32910156 C-189.67987625 14.43188416 -189.67987625 14.43188416 -191.44699097 14.53674316 C-193.03722076 14.62904205 -193.03722076 14.62904205 -194.65957642 14.72320557 C-195.57605265 14.77700504 -196.49252888 14.83080452 -197.43677711 14.88623428 C-199.96170152 14.99830017 -202.47296644 15.02018111 -205 15 C-205 14.34 -205 13.68 -205 13 C-206.32 12.67 -207.64 12.34 -209 12 C-205.37585746 11.67707057 -201.75056776 11.36897785 -198.125 11.0625 C-197.15046875 10.97548828 -196.1759375 10.88847656 -195.171875 10.79882812 C-187.61235001 10.16886771 -180.06812201 9.83941211 -172.48828125 9.578125 C-156.72032703 9.02072061 -140.98453591 8.01448345 -125.23977661 7.01547241 C-119.95686957 6.68027404 -114.67366118 6.35000817 -109.39038086 6.02075195 C-108.49794709 5.96511928 -107.60551332 5.9094866 -106.68603611 5.85216808 C-104.87541771 5.73929854 -103.06479867 5.62643916 -101.254179 5.51358986 C-98.53052423 5.34370473 -95.80689232 5.17345754 -93.08326721 5.00309753 C-76.53142387 3.96806356 -59.97867572 2.94863129 -43.42453003 1.95108032 C-40.53749138 1.77698236 -37.65055582 1.60130613 -34.76370239 1.42416382 C-30.77105087 1.17917446 -26.7781272 0.93894587 -22.78515625 0.69921875 C-21.04999756 0.59178345 -21.04999756 0.59178345 -19.27978516 0.48217773 C-12.84364112 0.1007908 -6.44734236 -0.09118872 0 0 Z " fill="#DBDBDB" transform="translate(286,187)"/>
<path d="M0 0 C0 4.29 0 8.58 0 13 C-16.17 13 -32.34 13 -49 13 C-46.88467294 8.76934588 -45.00671023 5.54097866 -41 3 C-36.70946131 1.83135327 -32.42411042 1.47172279 -28 1.125 C-26.79496826 1.01115967 -25.58993652 0.89731934 -24.34838867 0.7800293 C-16.19402172 0.0520296 -8.18528787 -0.28889251 0 0 Z " fill="#FBFBFB" transform="translate(337,97)"/>
<path d="M0 0 C-2.44980099 2.44980099 -3.33955539 2.32978409 -6.72363281 2.57568359 C-7.70724792 2.6511441 -8.69086304 2.72660461 -9.70428467 2.80435181 C-10.77640198 2.87665009 -11.84851929 2.94894836 -12.953125 3.0234375 C-14.06697571 3.10516205 -15.18082642 3.1868866 -16.32843018 3.27108765 C-27.67955642 4.08777464 -39.0392325 4.78070574 -50.40087891 5.43261719 C-53.81823033 5.62891934 -57.2352911 5.82981966 -60.65234375 6.03125 C-62.84633891 6.15911623 -65.04034877 6.28673044 -67.234375 6.4140625 C-68.24570496 6.47340973 -69.25703491 6.53275696 -70.29901123 6.59390259 C-71.23899963 6.64750946 -72.17898804 6.70111633 -73.14746094 6.75634766 C-73.96696228 6.80360992 -74.78646362 6.85087219 -75.63079834 6.89956665 C-78.09006096 7.00381779 -80.53883101 7.01706153 -83 7 C-83 6.34 -83 5.68 -83 5 C-84.32 4.67 -85.64 4.34 -87 4 C-72.97192235 2.75002732 -58.97663567 1.79237084 -44.8996582 1.32666016 C-39.68544129 1.15170503 -34.50856336 0.92911178 -29.3125 0.4375 C-19.58612691 -0.42947476 -9.75555989 -0.08126508 0 0 Z " fill="#EAEAEA" transform="translate(164,195)"/>
<path d="M0 0 C5.61 0 11.22 0 17 0 C17 1.98 17 3.96 17 6 C11.39 6 5.78 6 0 6 C0 4.02 0 2.04 0 0 Z " fill="#EDEDED" transform="translate(231,71)"/>
<path d="M0 0 C0 0.66 0 1.32 0 2 C-16.83 2.99 -16.83 2.99 -34 4 C-34 3.34 -34 2.68 -34 2 C-35.32 1.67 -36.64 1.34 -38 1 C-34.00043584 0.66129817 -30.00028974 0.33001275 -26 0 C-24.87464844 -0.09539062 -23.74929687 -0.19078125 -22.58984375 -0.2890625 C-6.4438326 -1.61095815 -6.4438326 -1.61095815 0 0 Z " fill="#EAEAEA" transform="translate(115,198)"/>
<path d="M0 0 C1.11310547 0.00451172 2.22621094 0.00902344 3.37304688 0.01367188 C6.10292101 0.02538807 8.83268174 0.04179301 11.5625 0.0625 C6.77183598 4.85316402 -3.889205 3.10803466 -10.42749023 3.12841797 C-13.76446488 3.12350704 -17.10071308 3.09846537 -20.4375 3.0625 C-20.1075 2.4025 -19.7775 1.7425 -19.4375 1.0625 C-13.04623186 -0.36276176 -6.51542548 -0.05026738 0 0 Z " fill="#EEEEEE" transform="translate(305.4375,185.9375)"/>
<path d="M0 0 C-0.33 0.99 -0.66 1.98 -1 3 C-11.395 3.495 -11.395 3.495 -22 4 C-22 3.67 -22 3.34 -22 3 C-23.65 2.67 -25.3 2.34 -27 2 C-27 1.67 -27 1.34 -27 1 C-17.98978127 0.41464936 -9.0343984 -0.14340315 0 0 Z " fill="#D1D1D1" transform="translate(286,187)"/>
<path d="M0 0 C1.66519519 0.34060811 3.33157466 0.67558396 5 1 C5 1.33 5 1.66 5 2 C-5.89 2.495 -5.89 2.495 -17 3 C-17 2.34 -17 1.68 -17 1 C-18.65 1 -20.3 1 -22 1 C-22 0.67 -22 0.34 -22 0 C-19.08365878 -0.19502282 -16.16720455 -0.38129328 -13.25 -0.5625 C-12.0125 -0.64661133 -12.0125 -0.64661133 -10.75 -0.73242188 C-9.95078125 -0.78076172 -9.1515625 -0.82910156 -8.328125 -0.87890625 C-7.5949707 -0.9260376 -6.86181641 -0.97316895 -6.10644531 -1.02172852 C-3.90116998 -0.99898054 -2.11428666 -0.60350016 0 0 Z " fill="#D5D5D5" transform="translate(132,197)"/>
<path d="M0 0 C0 0.66 0 1.32 0 2 C-3.29960141 3.6498007 -6.99127884 3.38258361 -10.625 3.5625 C-11.42679687 3.60568359 -12.22859375 3.64886719 -13.0546875 3.69335938 C-15.0362511 3.79951457 -17.01810271 3.90026855 -19 4 C-19 3.67 -19 3.34 -19 3 C-20.65 2.67 -22.3 2.34 -24 2 C-24 1.67 -24 1.34 -24 1 C-21.31264212 0.83071761 -18.62515116 0.6645047 -15.9375 0.5 C-14.80924805 0.42845703 -14.80924805 0.42845703 -13.65820312 0.35546875 C-9.09508249 0.07891598 -4.57143477 -0.0485677 0 0 Z " fill="#DADADA" transform="translate(402,180)"/>
<path d="M0 0 C1.25425781 0.00902344 2.50851562 0.01804688 3.80078125 0.02734375 C4.75339844 0.03894531 5.70601563 0.05054688 6.6875 0.0625 C6.6875 1.0525 6.6875 2.0425 6.6875 3.0625 C-3.7075 3.5575 -3.7075 3.5575 -14.3125 4.0625 C-13.6525 3.7325 -12.9925 3.4025 -12.3125 3.0625 C-12.3125 2.4025 -12.3125 1.7425 -12.3125 1.0625 C-8.15623632 0.05323521 -4.26884906 -0.03989579 0 0 Z " fill="#E3E3E3" transform="translate(414.3125,178.9375)"/>
</svg>
